<?xml version="1.0" encoding="UTF-8"?>
<svg width="365px" height="341px" viewBox="0 0 365 341" version="1.1" xmlns="http://www.w3.org/2000/svg" xmlns:xlink="http://www.w3.org/1999/xlink">
    <title>Group</title>
    <defs>
        <linearGradient x1="50%" y1="0%" x2="50%" y2="100%" id="linearGradient-1">
            <stop stop-color="#FFFFFF" stop-opacity="0" offset="0%"></stop>
            <stop stop-color="#DA6AEA" stop-opacity="0.520159528" offset="100%"></stop>
            <stop stop-color="#000000" stop-opacity="0.5" offset="100%"></stop>
        </linearGradient>
        <path d="M279.517691,339.325851 C315.117691,332.525851 347.017691,303.825851 359.417691,267.525851 C363.617691,255.225851 363.917691,248.625851 363.617691,188.825851 C363.217691,124.325851 363.517691,127.125851 353.817691,107.325851 C342.217691,83.4258506 323.817691,66.5258506 299.117691,57.0258506 C284.117691,51.2258506 279.317691,50.8258506 219.817691,50.8258506 C150.117691,50.8258506 157.717691,52.6258506 111.017691,25.2258506 C96.3176915,16.6258506 80.8176915,7.42585059 76.6176915,4.72585059 C68.4176915,-0.474149413 65.9176915,-1.07414941 63.4176915,1.42585059 C62.0176915,2.72585059 61.8176915,6.32585059 61.8176915,25.7258506 C61.8176915,49.5258506 61.3176915,53.4258506 57.4176915,57.7258506 C56.3176915,58.9258506 51.0176915,62.8258506 45.8176915,66.3258506 C35.4176915,73.2258506 22.7176915,85.6258506 16.5176915,95.1258506 C10.6176915,103.925851 5.01769145,116.825851 2.61769145,126.525851 C0.617691454,134.825851 0.417691454,138.525851 0.117691454,186.825851 C-0.182308546,218.825851 0.117691454,241.925851 0.717691454,247.925851 C3.01769145,268.725851 13.1176915,290.425851 28.0176915,306.325851 C46.0176915,325.725851 65.6176915,336.225851 90.3176915,339.825851 C93.1176915,340.225851 135.017691,340.625851 183.417691,340.725851 C258.317691,340.825851 272.817691,340.625851 279.517691,339.325851 Z" id="path-2"></path>
    </defs>
    <g id="Page-1" stroke="none" stroke-width="1" fill="none" fill-rule="evenodd">
        <g id="DALL·E-2023-10-27-22.26" transform="translate(0.5765, -0.0079)" fill-rule="nonzero">
            <g id="Group" transform="translate(181.8512, 170.374) scale(-1, 1) rotate(-180) translate(-181.8512, -170.374)translate(0, 0)">
                <g id="Shape">
                    <use fill="#F0502F" xlink:href="#path-2"></use>
                    <use fill="url(#linearGradient-1)" xlink:href="#path-2"></use>
                </g>
                <path d="M175.917691,295.825851 C165.417691,293.625851 157.817691,287.325851 153.017691,276.925851 C149.517691,269.425851 149.317691,257.725851 152.517691,250.625851 C154.917691,245.425851 162.917691,236.225851 165.917691,235.325851 C167.717691,234.725851 167.817691,233.425851 167.817691,216.225851 L167.817691,197.725851 L165.117691,199.725851 C163.517691,200.825851 155.417691,208.625851 146.917691,217.025851 L131.617691,232.425851 L131.417691,239.825851 C131.117691,253.025851 124.717691,263.325851 113.317691,268.925851 C97.9176915,276.425851 78.3176915,270.325851 70.7176915,255.625851 C66.3176915,247.025851 66.2176915,233.825851 70.4176915,225.525851 C72.8176915,221.025851 79.7176915,214.025851 84.5176915,211.125851 C91.1176915,207.325851 102.917691,206.925851 110.817691,210.225851 C111.817691,210.625851 116.017691,207.325851 123.817691,199.825851 L135.317691,188.825851 L132.817691,186.725851 C129.417691,183.925851 118.217691,173.225851 107.517691,162.925851 L98.8176915,154.325851 L85.8176915,153.825851 C73.2176915,153.325851 72.9176915,153.225851 69.8176915,150.325851 C61.7176915,142.625851 61.8176915,133.525851 70.0176915,127.625851 C73.2176915,125.325851 73.9176915,125.325851 103.817691,124.825851 C132.817691,124.325851 134.517691,124.225851 138.417691,122.125851 C142.117691,120.125851 148.117691,113.625851 160.817691,97.7258506 C166.317691,90.8258506 170.117691,88.1258506 175.417691,87.2258506 C183.517691,86.0258506 190.817691,90.5258506 192.917691,98.0258506 C194.517691,104.325851 193.217691,107.625851 186.417691,114.425851 C183.017691,117.725851 177.717691,123.825851 174.617691,128.025851 C163.117691,143.225851 154.017691,149.925851 142.617691,151.425851 C139.917691,151.825851 137.817691,152.425851 137.817691,152.825851 C137.817691,153.225851 141.617691,157.025851 146.217691,161.225851 L154.617691,168.825851 L175.317691,168.825851 L195.917691,168.825851 L208.617691,162.325851 C215.617691,158.825851 223.717691,154.525851 226.617691,152.825851 C231.617691,149.825851 231.817691,149.625851 231.817691,145.325851 C231.817691,134.925851 238.717691,124.325851 249.017691,118.725851 C254.717691,115.625851 256.117691,115.325851 263.317691,115.325851 C270.017691,115.325851 272.217691,115.725851 276.817691,118.025851 C288.417691,123.725851 294.817691,133.425851 295.617691,146.525851 C296.017691,153.225851 295.817691,154.425851 292.817691,160.425851 C289.117691,168.125851 283.717691,173.725851 277.017691,177.025851 C270.417691,180.225851 255.317691,180.325851 249.217691,177.225851 L245.117691,175.125851 L233.217691,181.325851 C226.717691,184.625851 221.317691,187.925851 221.117691,188.525851 C220.917691,189.025851 226.217691,194.625851 233.017691,200.925851 C239.717691,207.225851 246.317691,213.325851 247.617691,214.525851 L249.917691,216.825851 L255.017691,214.225851 C262.317691,210.525851 272.417691,209.925851 279.917691,212.725851 C287.817691,215.725851 294.017691,221.525851 298.017691,229.525851 C302.317691,238.325851 302.517691,247.525851 298.617691,255.825851 C290.017691,274.125851 268.517691,280.225851 251.217691,269.225851 C243.717691,264.525851 235.817691,251.825851 235.817691,244.425851 C235.817691,242.725851 230.917691,237.225851 217.817691,224.225851 C207.817691,214.425851 199.417691,206.225851 199.017691,206.025851 C198.617691,205.925851 198.417691,212.425851 198.617691,220.425851 L198.917691,235.125851 L203.817691,239.725851 C219.317691,254.325851 217.917691,279.625851 200.917691,290.825851 C194.017691,295.425851 184.017691,297.425851 175.917691,295.825851 Z" id="Path" fill="#FFFFFF"></path>
            </g>
        </g>
    </g>
</svg>