<?xml version="1.0" encoding="UTF-8"?>
<svg width="15px" height="15px" viewBox="0 0 238 210" version="1.1" xmlns="http://www.w3.org/2000/svg" xmlns:xlink="http://www.w3.org/1999/xlink">
    <title>Path</title>
    <g id="Page-1" stroke="none" stroke-width="1" fill="none" fill-rule="evenodd">
        <path d="M112.113018,208.792747 C101.613018,206.592747 94.0130176,200.292747 89.2130176,189.892747 C85.7130176,182.392747 85.5130176,170.692747 88.7130176,163.592747 C91.1130176,158.392747 99.1130176,149.192747 102.113018,148.292747 C103.913018,147.692747 104.013018,146.392747 104.013018,129.192747 L104.013018,110.692747 L101.313018,112.692747 C99.7130176,113.792747 91.6130176,121.592747 83.1130176,129.992747 L67.8130176,145.392747 L67.6130176,152.792747 C67.3130176,165.992747 60.9130176,176.292747 49.5130176,181.892747 C34.1130176,189.392747 14.5130176,183.292747 6.91301763,168.592747 C2.51301763,159.992747 2.41301763,146.792747 6.61301763,138.492747 C7.7202802,136.41663 9.25979518,133.563513 11.6346003,131.071264 C14.4072033,128.161543 18.1275428,125.654805 20.7130176,124.092747 C27.3130176,120.292747 39.1130176,119.892747 47.0130176,123.192747 C48.0130176,123.592747 52.2130176,120.292747 60.0130176,112.792747 L71.5130176,101.792747 L69.0130176,99.6927468 C65.6130176,96.8927468 54.4130176,86.1927468 43.7130176,75.8927468 L35.0130176,67.2927468 L22.0130176,66.7927468 C9.41301763,66.2927468 9.11301763,66.1927468 6.01301763,63.2927468 C-2.08698237,55.5927468 -1.98698237,46.4927468 6.21301763,40.5927468 C9.41301763,38.2927468 10.1130176,38.2927468 40.0130176,37.7927468 C69.0130176,37.2927468 70.7130176,37.1927468 74.6130176,35.0927468 C78.3130176,33.0927468 84.3130176,26.5927468 97.0130176,10.6927468 C102.513018,3.79274683 106.313018,1.09274683 111.613018,0.192746834 C119.713018,-1.00725317 127.013018,3.49274683 129.113018,10.9927468 C130.713018,17.2927468 129.413018,20.5927468 122.613018,27.3927468 C119.213018,30.6927468 113.913018,36.7927468 110.813018,40.9927468 C99.3130176,56.1927468 90.2130176,62.8927468 78.8130176,64.3927468 C76.1130176,64.7927468 74.0130176,65.3927468 74.0130176,65.7927468 C74.0130176,66.1927468 77.8130176,69.9927468 82.4130176,74.1927468 L90.8130176,81.7927468 L111.513018,81.7927468 L132.113018,81.7927468 L144.813018,75.2927468 C151.813018,71.7927468 159.913018,67.4927468 162.813018,65.7927468 C167.813018,62.7927468 168.013018,62.5927468 168.013018,58.2927468 C168.013018,47.8927468 174.913018,37.2927468 185.213018,31.6927468 C190.913018,28.5927468 192.313018,28.2927468 199.513018,28.2927468 C206.213018,28.2927468 208.413018,28.6927468 213.013018,30.9927468 C224.613018,36.6927468 231.013018,46.3927468 231.813018,59.4927468 C232.213018,66.1927468 232.013018,67.3927468 229.013018,73.3927468 C225.313018,81.0927468 219.913018,86.6927468 213.213018,89.9927468 C206.613018,93.1927468 191.513018,93.2927468 185.413018,90.1927468 L181.313018,88.0927468 L169.413018,94.2927468 C162.913018,97.5927468 157.513018,100.892747 157.313018,101.492747 C157.113018,101.992747 162.413018,107.592747 169.213018,113.892747 C175.913018,120.192747 182.513018,126.292747 183.813018,127.492747 L186.113018,129.792747 L191.213018,127.192747 C198.513018,123.492747 208.613018,122.892747 216.113018,125.692747 C224.013018,128.692747 230.213018,134.492747 234.213018,142.492747 C238.513018,151.292747 238.713018,160.492747 234.813018,168.792747 C226.213018,187.092747 204.713018,193.192747 187.413018,182.192747 C179.913018,177.492747 172.013018,164.792747 172.013018,157.392747 C172.013018,155.692747 167.113018,150.192747 154.013018,137.192747 C144.013018,127.392747 135.613018,119.192747 135.213018,118.992747 C134.813018,118.892747 134.613018,125.392747 134.813018,133.392747 L135.113018,148.092747 L140.013018,152.692747 C155.513018,167.292747 154.113018,192.592747 137.113018,203.792747 C130.213018,208.392747 120.213018,210.392747 112.113018,208.792747 Z" id="Path" fill="#F0502F" fill-rule="nonzero" transform="translate(118.7977, 104.6688) scale(1, -1) translate(-118.7977, -104.6688)"></path>
    </g>
</svg>
